<?xml version="1.0" encoding="UTF-8" standalone="no"?>
<svg
   xmlns:dc="http://purl.org/dc/elements/1.1/"
   xmlns:cc="http://creativecommons.org/ns#"
   xmlns:rdf="http://www.w3.org/1999/02/22-rdf-syntax-ns#"
   xmlns:svg="http://www.w3.org/2000/svg"
   xmlns="http://www.w3.org/2000/svg"
   id="svg93"
   version="1.1"
   viewBox="0 0 700 700"
   height="7.77778in"
   width="7.77778in">
  <metadata
     id="metadata99">
    <rdf:RDF>
      <cc:Work
         rdf:about="">
        <dc:format>image/svg+xml</dc:format>
        <dc:type
           rdf:resource="http://purl.org/dc/dcmitype/StillImage" />
        <dc:title></dc:title>
      </cc:Work>
    </rdf:RDF>
  </metadata>
  <defs
     id="defs97" />
  <g
     style="display:none"
     id="g4866">
    <path
       transform="matrix(0.08871015,0.13858384,-0.13858384,0.08871015,399.65203,280.01969)"
       d="M 1330.6234,-1268.8411 C 3267.7589,-32.253343 3202.2907,-328.84681 1965.7029,1608.2887 729.11514,3545.4242 1025.7086,3479.956 -911.42688,2243.3682 -2848.5624,1006.7804 -2783.0942,1303.3739 -1546.5064,-633.76158 -309.91864,-2570.8971 -606.51211,-2505.4289 1330.6234,-1268.8411 Z"
       id="path4864"
       style="display:inline;fill:#1098cc;fill-opacity:1;stroke:#000000;stroke-width:0.93749976;stroke-opacity:1" />
  </g>
  <g
     style="display:inline"
     id="layer1">
    <path
       d="m 575.48346,504.31938 c -0.0113,8.47627 -0.14839,17.73896 -8.41297,22.79632 -5.52494,3.3643 -19.40578,3.68105 -25.98091,3.68105 0,0 -50.64035,-2.08535 -142.99621,3.27953 -20.78278,61.24877 -78.58536,94.64426 -125.71283,116.63933 81.60784,4.90367 138.2863,-17.43441 189.26383,-79.49396 2.20312,-0.77553 104.70696,-2.05237 104.70696,-2.05237 29.40548,-0.0438 50.31806,-21.08142 50.37513,-49.55768 l 0.38732,-280.78135 c 0.55131,-39.58449 -10.37842,-48.41856 -30.36355,-58.24698 9.55102,-17.94499 34.58266,-102.634874 12.85348,-110.049301 -18.19624,45.947551 -62.12326,84.398211 -98.31883,106.641291 -2.38576,0.64448 -297.78743,0.40417 -297.78743,0.40417 C 118.25268,137.84775 112.81814,108.66637 96.936069,69.383976 80.174862,83.623961 82.632305,109.74773 86.320758,128.07636 c 3.184831,16.34082 10.696016,39.26821 20.924012,52.96568 -7.705248,3.18951 -14.782651,6.92518 -19.908058,13.55544 -6.152778,7.97378 -7.111652,12.80178 -7.123067,22.44681 l 0.136984,301.60608 c 0.433776,12.14638 1.746518,19.73787 9.565911,30.16934 14.69132,20.07648 33.10398,21.03772 61.64189,20.49157 0,0 91.89209,0.54615 117.71318,-0.28399 20.41034,-1.76955 19.90805,-23.70294 11.83754,-31.69859 -7.52259,-7.43856 -20.182,-7.04533 -30.38717,-6.93609 l -97.3143,0.40414 c -12.67083,-0.011 -25.25033,1.37629 -31.25471,-16.51559 -1.43832,-3.53906 -0.99312,-271.16366 -0.99312,-271.16366 0.0342,-20.79743 10.82158,-25.49432 31.96247,-25.5271 h 397.96694 c 18.10446,0.22938 25.3645,11.69855 24.5426,26.6194 -0.82188,12.84545 -0.1484,260.10958 -0.1484,260.10958 z"
       id="Selection"
       style="fill:#ffffff;fill-opacity:1;stroke:none;stroke-width:1.11663759" />
  </g>
  <g
     id="g4837"
     style="display:inline">
    <g
       id="text4835"
       style="font-style:normal;font-variant:normal;font-weight:normal;font-stretch:normal;font-size:288.62490845px;line-height:1.25;font-family:'URW Gothic';-inkscape-font-specification:'URW Gothic, Normal';font-variant-ligatures:normal;font-variant-caps:normal;font-variant-numeric:normal;font-feature-settings:normal;text-align:start;letter-spacing:0px;word-spacing:0px;writing-mode:lr-tb;text-anchor:start;fill:#ffffff;fill-opacity:1;stroke:none;stroke-width:0.72154671"
       transform="matrix(0.98138009,0,0,0.96583277,0.51269452,28.850757)"
       aria-label="R">
      <path
         id="path4839"
         d="m 280.08471,243.57836 -67.03212,231.05123 h 48.66644 l 54.7226,-188.71764 h 37.16732 c 27.87494,0 46.45844,2.8591 60.75329,9.64913 45.04914,26.54902 22.06812,81.80749 -15.9646,92.02618 -12.50798,3.21634 -44.04109,10.55338 -73.34552,10.55338 l 100.31426,76.48895 70.73519,0.65039 -80.65832,-59.08271 c 50.74669,-5.36056 68.75652,-33.23705 68.75652,-80.7674 0,-32.87813 -13.93714,-64.39813 -39.66786,-78.33561 -16.43907,-8.93427 -42.95748,-13.5159 -77.97984,-13.5159 z"
         style="font-style:normal;font-variant:normal;font-weight:normal;font-stretch:normal;font-size:288.62490845px;font-family:'URW Gothic';-inkscape-font-specification:'URW Gothic, Normal';font-variant-ligatures:normal;font-variant-caps:normal;font-variant-numeric:normal;font-feature-settings:normal;text-align:start;writing-mode:lr-tb;text-anchor:start;fill:#ffffff;fill-opacity:1;stroke-width:0.89340836" />
    </g>
  </g>
</svg>
